<?xml version="1.0" encoding="UTF-8"?>
<svg id="Layer_2" data-name="Layer 2" xmlns="http://www.w3.org/2000/svg" xmlns:xlink="http://www.w3.org/1999/xlink" viewBox="0 0 1939.57 1939.57">
  <defs>
    <style>
      .cls-1 {
        fill: url(#linear-gradient-2);
      }

      .cls-2 {
        fill: url(#linear-gradient-51);
      }

      .cls-3 {
        fill: url(#linear-gradient-17);
      }

      .cls-4 {
        fill: url(#linear-gradient-43);
      }

      .cls-5 {
        fill: url(#linear-gradient-15);
      }

      .cls-6 {
        fill: url(#linear-gradient-18);
      }

      .cls-7 {
        fill: url(#linear-gradient-56);
      }

      .cls-8 {
        fill: url(#linear-gradient-40);
      }

      .cls-9 {
        fill: url(#linear-gradient-52);
      }

      .cls-10 {
        fill: url(#linear-gradient-28);
      }

      .cls-11 {
        fill: url(#linear-gradient-14);
      }

      .cls-12 {
        fill: url(#linear-gradient-36);
      }

      .cls-13 {
        fill: url(#linear-gradient-20);
      }

      .cls-14 {
        fill: url(#linear-gradient-6);
      }

      .cls-15 {
        fill: url(#linear-gradient-53);
      }

      .cls-16 {
        fill: url(#linear-gradient-35);
      }

      .cls-17 {
        fill: url(#linear-gradient-48);
      }

      .cls-18 {
        fill: url(#linear-gradient-32);
      }

      .cls-19 {
        fill: url(#linear-gradient-11);
      }

      .cls-20 {
        fill: url(#linear-gradient-50);
      }

      .cls-21 {
        filter: url(#drop-shadow-1);
      }

      .cls-22 {
        fill: url(#linear-gradient-39);
      }

      .cls-23 {
        fill: url(#linear-gradient-10);
      }

      .cls-24 {
        fill: url(#linear-gradient-49);
      }

      .cls-25 {
        fill: url(#linear-gradient-37);
      }

      .cls-26 {
        fill: url(#linear-gradient-16);
      }

      .cls-27 {
        fill: url(#linear-gradient-57);
        filter: url(#drop-shadow-3);
      }

      .cls-28 {
        fill: url(#linear-gradient-31);
      }

      .cls-29 {
        fill: url(#linear-gradient-41);
      }

      .cls-30 {
        fill: url(#linear-gradient-21);
      }

      .cls-31 {
        filter: url(#drop-shadow-2);
      }

      .cls-32 {
        fill: url(#linear-gradient-25);
      }

      .cls-33 {
        fill: url(#linear-gradient-5);
      }

      .cls-34 {
        fill: url(#linear-gradient-54);
      }

      .cls-35 {
        fill: url(#linear-gradient-45);
      }

      .cls-36 {
        fill: url(#linear-gradient-55);
      }

      .cls-37 {
        fill: url(#linear-gradient-34);
      }

      .cls-38 {
        fill: url(#linear-gradient-7);
      }

      .cls-39 {
        fill: url(#linear-gradient-24);
      }

      .cls-40 {
        fill: url(#linear-gradient-9);
      }

      .cls-41 {
        fill: url(#linear-gradient-22);
      }

      .cls-42 {
        fill: url(#linear-gradient-42);
      }

      .cls-43 {
        fill: url(#linear-gradient-3);
      }

      .cls-44 {
        fill: url(#linear-gradient);
      }

      .cls-45 {
        fill: url(#linear-gradient-27);
      }

      .cls-46 {
        fill: #0b2e4d;
      }

      .cls-47 {
        fill: url(#linear-gradient-33);
      }

      .cls-48 {
        fill: url(#linear-gradient-38);
      }

      .cls-49 {
        fill: url(#linear-gradient-29);
      }

      .cls-50 {
        fill: url(#linear-gradient-30);
      }

      .cls-51 {
        fill: url(#linear-gradient-23);
      }

      .cls-52 {
        fill: url(#linear-gradient-19);
      }

      .cls-53 {
        fill: url(#linear-gradient-4);
      }

      .cls-54 {
        fill: url(#linear-gradient-8);
      }

      .cls-55 {
        fill: url(#linear-gradient-44);
      }

      .cls-56 {
        fill: url(#linear-gradient-47);
      }

      .cls-57 {
        fill: url(#linear-gradient-46);
      }

      .cls-58 {
        fill: url(#linear-gradient-12);
      }

      .cls-59 {
        fill: url(#linear-gradient-13);
      }

      .cls-60 {
        fill: url(#linear-gradient-26);
      }
    </style>
    <filter id="drop-shadow-1" filterUnits="userSpaceOnUse">
      <feOffset dx="10" dy="9"/>
      <feGaussianBlur result="blur" stdDeviation="7"/>
      <feFlood flood-color="#231f20" flood-opacity=".59"/>
      <feComposite in2="blur" operator="in"/>
      <feComposite in="SourceGraphic"/>
    </filter>
    <linearGradient id="linear-gradient" x1="0" y1="969.79" x2="1939.57" y2="969.79" gradientUnits="userSpaceOnUse">
      <stop offset="0" stop-color="#eeda76"/>
      <stop offset=".04" stop-color="#d7b85c"/>
      <stop offset=".09" stop-color="#bf9641"/>
      <stop offset=".13" stop-color="#b18031"/>
      <stop offset=".15" stop-color="#ac792b"/>
      <stop offset=".15" stop-color="#ac792b"/>
      <stop offset=".35" stop-color="#ac792b"/>
      <stop offset=".38" stop-color="#bd9842"/>
      <stop offset=".43" stop-color="#d2bb5e"/>
      <stop offset=".46" stop-color="#dfd16e"/>
      <stop offset=".48" stop-color="#e4da75"/>
      <stop offset=".51" stop-color="#e2d570"/>
      <stop offset=".58" stop-color="#e0ca67"/>
      <stop offset=".67" stop-color="#e0c765"/>
      <stop offset=".71" stop-color="#d0af53"/>
      <stop offset=".76" stop-color="#c09741"/>
      <stop offset=".82" stop-color="#b48634"/>
      <stop offset=".87" stop-color="#ae7c2d"/>
      <stop offset=".95" stop-color="#ac792b"/>
    </linearGradient>
    <linearGradient id="linear-gradient-2" x1="418.57" y1="969.79" x2="1521.01" y2="969.79" xlink:href="#linear-gradient"/>
    <filter id="drop-shadow-2" filterUnits="userSpaceOnUse">
      <feOffset dx="27" dy="9"/>
      <feGaussianBlur result="blur-2" stdDeviation="7"/>
      <feFlood flood-color="#231f20" flood-opacity=".97"/>
      <feComposite in2="blur-2" operator="in"/>
      <feComposite in="SourceGraphic"/>
    </filter>
    <linearGradient id="linear-gradient-3" x1="645.33" y1="949.74" x2="1331.85" y2="949.74" xlink:href="#linear-gradient"/>
    <linearGradient id="linear-gradient-4" x1="739.63" y1="1172.18" x2="847.23" y2="1172.18" gradientUnits="userSpaceOnUse">
      <stop offset="0" stop-color="#eeda76"/>
      <stop offset=".04" stop-color="#d7b85c"/>
      <stop offset=".09" stop-color="#bf9641"/>
      <stop offset=".13" stop-color="#b18031"/>
      <stop offset=".15" stop-color="#ac792b"/>
      <stop offset=".15" stop-color="#ac792b"/>
      <stop offset=".35" stop-color="#ac792b"/>
      <stop offset=".36" stop-color="#b5862c"/>
      <stop offset=".42" stop-color="#cea931"/>
      <stop offset=".46" stop-color="#debf34"/>
      <stop offset=".48" stop-color="#e4c836"/>
      <stop offset=".51" stop-color="#e2c744"/>
      <stop offset=".56" stop-color="#e1c756"/>
      <stop offset=".61" stop-color="#e0c761"/>
      <stop offset=".67" stop-color="#e0c765"/>
      <stop offset=".71" stop-color="#d0af53"/>
      <stop offset=".76" stop-color="#c09741"/>
      <stop offset=".82" stop-color="#b48634"/>
      <stop offset=".87" stop-color="#ae7c2d"/>
      <stop offset=".95" stop-color="#ac792b"/>
    </linearGradient>
    <linearGradient id="linear-gradient-5" x1="906.39" y1="1307.35" x2="1012.55" y2="1307.35" xlink:href="#linear-gradient-4"/>
    <linearGradient id="linear-gradient-6" x1="592.08" y1="828.01" x2="779.21" y2="828.01" xlink:href="#linear-gradient-4"/>
    <linearGradient id="linear-gradient-7" x1="868.83" y1="594.81" x2="970.76" y2="594.81" xlink:href="#linear-gradient-4"/>
    <linearGradient id="linear-gradient-8" x1="1347.67" y1="925.11" x2="1394.9" y2="925.11" xlink:href="#linear-gradient-4"/>
    <linearGradient id="linear-gradient-9" x1="554.67" y1="1069.65" x2="602.6" y2="1069.65" xlink:href="#linear-gradient-4"/>
    <linearGradient id="linear-gradient-10" x1="544.67" y1="852.1" x2="646.6" y2="852.1" xlink:href="#linear-gradient-4"/>
    <linearGradient id="linear-gradient-11" x1="927.16" y1="803.45" x2="1077.68" y2="803.45" xlink:href="#linear-gradient-4"/>
    <linearGradient id="linear-gradient-12" x1="752.49" y1="1114.41" x2="809.3" y2="1114.41" xlink:href="#linear-gradient-4"/>
    <linearGradient id="linear-gradient-13" x1="648.29" y1="702.67" x2="684.08" y2="702.67" xlink:href="#linear-gradient-4"/>
    <linearGradient id="linear-gradient-14" x1="1016.64" y1="598.86" x2="1050.93" y2="598.86" xlink:href="#linear-gradient-4"/>
    <linearGradient id="linear-gradient-15" x1="855.14" y1="1057.5" x2="890.06" y2="1057.5" xlink:href="#linear-gradient-4"/>
    <linearGradient id="linear-gradient-16" x1="1298.15" y1="987.36" x2="1331.19" y2="987.36" xlink:href="#linear-gradient-4"/>
    <linearGradient id="linear-gradient-17" x1="904.46" y1="1143.02" x2="944.5" y2="1143.02" xlink:href="#linear-gradient-4"/>
    <linearGradient id="linear-gradient-18" x1="831.6" y1="1343.52" x2="872.52" y2="1343.52" xlink:href="#linear-gradient-4"/>
    <linearGradient id="linear-gradient-19" x1="1004.37" y1="709.41" x2="1043.32" y2="709.41" xlink:href="#linear-gradient-4"/>
    <linearGradient id="linear-gradient-20" x1="1279.06" y1="745.61" x2="1319.86" y2="745.61" xlink:href="#linear-gradient-4"/>
    <linearGradient id="linear-gradient-21" x1="722.34" y1="957.91" x2="761.73" y2="957.91" xlink:href="#linear-gradient-4"/>
    <linearGradient id="linear-gradient-22" x1="756.56" y1="611.69" x2="797.58" y2="611.69" xlink:href="#linear-gradient-4"/>
    <linearGradient id="linear-gradient-23" x1="790.94" y1="801.95" x2="805.82" y2="801.95" xlink:href="#linear-gradient-4"/>
    <linearGradient id="linear-gradient-24" x1="1284.54" y1="828.59" x2="1309.56" y2="828.59" xlink:href="#linear-gradient-4"/>
    <linearGradient id="linear-gradient-25" x1="929.51" y1="724.17" x2="955.09" y2="724.17" xlink:href="#linear-gradient-4"/>
    <linearGradient id="linear-gradient-26" x1="1019.02" y1="1373.69" x2="1048.21" y2="1373.69" xlink:href="#linear-gradient-4"/>
    <linearGradient id="linear-gradient-27" x1="589.02" y1="763.13" x2="606.01" y2="763.13" xlink:href="#linear-gradient-4"/>
    <linearGradient id="linear-gradient-28" x1="788.22" y1="686.48" x2="804.92" y2="686.48" xlink:href="#linear-gradient-4"/>
    <linearGradient id="linear-gradient-29" x1="1008.75" y1="977.49" x2="1027.15" y2="977.49" xlink:href="#linear-gradient-4"/>
    <linearGradient id="linear-gradient-30" x1="617.7" y1="1088.55" x2="636.16" y2="1088.55" xlink:href="#linear-gradient-4"/>
    <linearGradient id="linear-gradient-31" x1="1333.43" y1="895.93" x2="1350.93" y2="895.93" xlink:href="#linear-gradient-4"/>
    <linearGradient id="linear-gradient-32" x1="729.8" y1="705.58" x2="745.65" y2="705.58" xlink:href="#linear-gradient-4"/>
    <linearGradient id="linear-gradient-33" x1="1348.64" y1="1096.37" x2="1365.38" y2="1096.37" xlink:href="#linear-gradient-4"/>
    <linearGradient id="linear-gradient-34" x1="765.02" y1="1327.64" x2="780.41" y2="1327.64" xlink:href="#linear-gradient-4"/>
    <linearGradient id="linear-gradient-35" x1="698.14" y1="1143.68" x2="715.67" y2="1143.68" xlink:href="#linear-gradient-4"/>
    <linearGradient id="linear-gradient-36" x1="840.71" y1="629.87" x2="857.78" y2="629.87" xlink:href="#linear-gradient-4"/>
    <linearGradient id="linear-gradient-37" x1="930.49" y1="1383.84" x2="945.88" y2="1383.84" xlink:href="#linear-gradient-4"/>
    <linearGradient id="linear-gradient-38" x1="714.47" y1="757.56" x2="735.12" y2="757.56" xlink:href="#linear-gradient-4"/>
    <linearGradient id="linear-gradient-39" x1="814.32" y1="915.87" x2="830.42" y2="915.87" xlink:href="#linear-gradient-4"/>
    <linearGradient id="linear-gradient-40" x1="721.28" y1="784.02" x2="737.08" y2="784.02" xlink:href="#linear-gradient-4"/>
    <linearGradient id="linear-gradient-41" x1="708.3" y1="884.41" x2="723.43" y2="884.41" xlink:href="#linear-gradient-4"/>
    <linearGradient id="linear-gradient-42" x1="619.14" y1="923.01" x2="649.36" y2="923.01" xlink:href="#linear-gradient-4"/>
    <linearGradient id="linear-gradient-43" x1="680.97" y1="793.36" x2="709.73" y2="793.36" xlink:href="#linear-gradient-4"/>
    <linearGradient id="linear-gradient-44" x1="707.9" y1="737.07" x2="737.04" y2="737.07" xlink:href="#linear-gradient-4"/>
    <linearGradient id="linear-gradient-45" x1="796.69" y1="665.15" x2="797.2" y2="665.15" xlink:href="#linear-gradient-4"/>
    <linearGradient id="linear-gradient-46" x1="875.88" y1="1010.31" x2="876.31" y2="1010.31" xlink:href="#linear-gradient-4"/>
    <linearGradient id="linear-gradient-47" x1="813.95" y1="931.61" x2="814.42" y2="931.61" xlink:href="#linear-gradient-4"/>
    <linearGradient id="linear-gradient-48" x1="1278.77" y1="781.93" x2="1279.16" y2="781.93" xlink:href="#linear-gradient-4"/>
    <linearGradient id="linear-gradient-49" x1="697.78" y1="1160.38" x2="698.25" y2="1160.38" xlink:href="#linear-gradient-4"/>
    <linearGradient id="linear-gradient-50" x1="1002.78" y1="745.56" x2="1004.56" y2="745.56" xlink:href="#linear-gradient-4"/>
    <linearGradient id="linear-gradient-51" x1="763.25" y1="1344.1" x2="765.09" y2="1344.1" xlink:href="#linear-gradient-4"/>
    <linearGradient id="linear-gradient-52" x1="762.94" y1="1345.25" x2="763.36" y2="1345.25" xlink:href="#linear-gradient-4"/>
    <linearGradient id="linear-gradient-53" x1="729.4" y1="722.06" x2="729.92" y2="722.06" xlink:href="#linear-gradient-4"/>
    <linearGradient id="linear-gradient-54" x1="840.32" y1="646.5" x2="840.82" y2="646.5" xlink:href="#linear-gradient-4"/>
    <linearGradient id="linear-gradient-55" x1="928.74" y1="1400.42" x2="930.59" y2="1400.42" xlink:href="#linear-gradient-4"/>
    <linearGradient id="linear-gradient-56" x1="928.43" y1="1401.51" x2="928.85" y2="1401.51" xlink:href="#linear-gradient-4"/>
    <linearGradient id="linear-gradient-57" x1="228.88" y1="969.79" x2="1710.69" y2="969.79" gradientUnits="userSpaceOnUse">
      <stop offset="0" stop-color="#eeda76"/>
      <stop offset=".04" stop-color="#d7b85c"/>
      <stop offset=".09" stop-color="#bf9641"/>
      <stop offset=".13" stop-color="#b18031"/>
      <stop offset=".15" stop-color="#ac792b"/>
      <stop offset=".15" stop-color="#ac792b"/>
      <stop offset=".35" stop-color="#ac792b"/>
      <stop offset=".37" stop-color="#b68836"/>
      <stop offset=".42" stop-color="#cdab50"/>
      <stop offset=".46" stop-color="#dcc161"/>
      <stop offset=".48" stop-color="#e2ca67"/>
      <stop offset=".67" stop-color="#e0c765"/>
      <stop offset=".71" stop-color="#d0af53"/>
      <stop offset=".76" stop-color="#c09741"/>
      <stop offset=".82" stop-color="#b48634"/>
      <stop offset=".87" stop-color="#ae7c2d"/>
      <stop offset=".95" stop-color="#ac792b"/>
    </linearGradient>
    <filter id="drop-shadow-3" filterUnits="userSpaceOnUse">
      <feOffset dx="27" dy="9"/>
      <feGaussianBlur result="blur-3" stdDeviation="31"/>
      <feFlood flood-color="#231f20" flood-opacity=".72"/>
      <feComposite in2="blur-3" operator="in"/>
      <feComposite in="SourceGraphic"/>
    </filter>
  </defs>
  <g id="Layer_1-2" data-name="Layer 1">
    <g>
      <g class="cls-21">
        <path class="cls-46" d="m968.2,55.12c3.79,16.67,14.57,32.38,25.86,47.47,13.25,16.75,27.01,32.42,45.14,47.47,18.71,15.82,44.45,31.64,65.45,47.47,18.57,15.35,42,31.16,57.27,47.47,11.98,15.32,14.91,31.17,21.46,47.47,11.04,31.29,14.82,62.9,15.62,94.93,2.38,18.5-2.28,35.63-24.34,47.47,0,0-412.93,0-412.93,0-21.91-11.73-26.8-29.05-24.34-47.47.81-32.04,4.57-63.65,15.62-94.93,6.55-16.3,9.5-32.14,21.46-47.47,15.29-16.31,38.7-32.1,57.27-47.47,21.01-15.82,46.74-31.64,65.45-47.47,18.12-15.05,31.89-30.73,45.14-47.47,11.29-15.1,22.07-30.8,25.86-47.47h0ZM321.9,324.15c14.47,9.11,33.2,12.59,51.85,15.28,21.21,2.48,42.02,3.82,65.48,1.65,24.42-2.04,53.8-9.05,79.85-12.72,23.99-2.28,51.73-7.66,74.06-6.93,19.31,2.36,32.59,11.5,48.74,18.39,29.93,14.31,54.95,34,78.17,56.08,14.77,11.4,23.58,26.81,16.35,50.77,0,0-291.98,291.98-291.98,291.98-23.79,7.2-39.49-1.59-50.77-16.36-22.08-23.22-41.77-48.24-56.08-78.17-6.9-16.16-16.01-29.44-18.39-48.74-.72-22.35,4.67-50.07,6.93-74.06,3.67-26.04,10.68-55.43,12.72-79.85,2.17-23.45.82-44.28-1.65-65.48-2.69-18.65-6.17-37.39-15.28-51.85h0ZM55.12,971.38c16.67-3.79,32.38-14.57,47.47-25.86,16.75-13.25,32.42-27.01,47.47-45.14,15.82-18.71,31.64-44.45,47.47-65.45,15.35-18.57,31.16-42,47.47-57.27,15.32-11.98,31.17-14.91,47.47-21.46,31.29-11.04,62.9-14.82,94.93-15.62,18.5-2.38,35.63,2.28,47.47,24.34,0,0,0,412.93,0,412.93-11.73,21.91-29.05,26.8-47.47,24.34-32.04-.81-63.65-4.57-94.93-15.62-16.3-6.55-32.14-9.5-47.47-21.46-16.31-15.29-32.1-38.7-47.47-57.27-15.82-21.01-31.64-46.74-47.47-65.45-15.05-18.12-30.73-31.89-47.47-45.14-15.1-11.29-30.8-22.07-47.47-25.86h0Zm269.02,646.3c9.11-14.47,12.59-33.2,15.28-51.85,2.48-21.21,3.82-42.02,1.65-65.48-2.04-24.42-9.05-53.8-12.72-79.85-2.28-23.99-7.66-51.73-6.93-74.06,2.36-19.31,11.5-32.59,18.39-48.74,14.31-29.93,34-54.95,56.08-78.17,11.4-14.77,26.81-23.58,50.77-16.35,0,0,291.98,291.98,291.98,291.98,7.2,23.79-1.59,39.49-16.36,50.77-23.22,22.08-48.24,41.77-78.17,56.08-16.16,6.9-29.44,16.01-48.74,18.39-22.35.72-50.07-4.67-74.06-6.93-26.04-3.67-55.43-10.68-79.85-12.72-23.45-2.17-44.28-.82-65.48,1.65-18.65,2.69-37.39,6.17-51.85,15.28h0Zm647.23,266.77c-3.79-16.67-14.57-32.38-25.86-47.47-13.25-16.75-27.01-32.42-45.14-47.47-18.71-15.82-44.45-31.64-65.45-47.47-18.57-15.35-42-31.16-57.27-47.47-11.98-15.32-14.91-31.17-21.46-47.47-11.04-31.29-14.82-62.9-15.62-94.93-2.38-18.5,2.28-35.63,24.34-47.47,0,0,412.93,0,412.93,0,21.91,11.73,26.8,29.05,24.34,47.47-.81,32.04-4.57,63.65-15.62,94.93-6.55,16.3-9.5,32.14-21.46,47.47-15.29,16.31-38.7,32.1-57.27,47.47-21.01,15.82-46.74,31.64-65.45,47.47-18.12,15.05-31.89,30.73-45.14,47.47-11.29,15.1-22.07,30.8-25.86,47.47h0Zm646.3-269.02c-14.47-9.11-33.2-12.59-51.85-15.28-21.21-2.48-42.02-3.82-65.48-1.65-24.42,2.04-53.8,9.05-79.85,12.72-23.99,2.28-51.73,7.66-74.06,6.93-19.31-2.36-32.59-11.5-48.74-18.39-29.93-14.31-54.95-34-78.17-56.08-14.77-11.4-23.58-26.81-16.35-50.77,0,0,291.98-291.98,291.98-291.98,23.79-7.2,39.49,1.59,50.77,16.36,22.08,23.22,41.77,48.24,56.08,78.17,6.9,16.16,16.01,29.44,18.39,48.74.72,22.35-4.67,50.07-6.93,74.06-3.67,26.04-10.68,55.43-12.72,79.85-2.17,23.45-.82,44.28,1.65,65.48,2.69,18.65,6.17,37.39,15.28,51.85h0Zm266.77-647.23c-16.67,3.79-32.38,14.57-47.47,25.86-16.75,13.25-32.42,27.01-47.47,45.14-15.82,18.71-31.64,44.45-47.47,65.45-15.35,18.57-31.16,42-47.47,57.27-15.32,11.98-31.17,14.91-47.47,21.46-31.29,11.04-62.9,14.82-94.93,15.62-18.5,2.38-35.63-2.28-47.47-24.34,0,0,0-412.93,0-412.93,11.73-21.91,29.05-26.8,47.47-24.34,32.04.81,63.65,4.57,94.93,15.62,16.3,6.55,32.14,9.5,47.47,21.46,16.31,15.29,32.1,38.7,47.47,57.27,15.82,21.01,31.64,46.74,47.47,65.45,15.05,18.12,30.73,31.89,47.47,45.14,15.1,11.29,30.8,22.07,47.47,25.86h0Zm-269.02-646.3c-9.11,14.47-12.59,33.2-15.28,51.85-2.48,21.21-3.82,42.02-1.65,65.48,2.04,24.42,9.05,53.8,12.72,79.85,2.28,23.99,7.66,51.73,6.93,74.06-2.36,19.31-11.5,32.59-18.39,48.74-14.31,29.93-34,54.95-56.08,78.17-11.4,14.77-26.81,23.58-50.77,16.35,0,0-291.98-291.98-291.98-291.98-7.2-23.79,1.59-39.49,16.36-50.77,23.22-22.08,48.24-41.77,78.17-56.08,16.16-6.9,29.44-16.01,48.74-18.39,22.35-.72,50.07,4.67,74.06,6.93,26.04,3.67,55.43,10.68,79.85,12.72,23.45,2.17,44.28.82,65.48-1.65,18.65-2.69,37.39-6.17,51.85-15.28h0Z"/>
        <path class="cls-44" d="m971.37,1939.57l-11.91-52.42c-3.34-14.71-13.94-29.76-23.63-42.73-10.98-13.87-24.69-30.1-43.25-45.51l-.08-.07c-10.73-9.07-24.4-18.52-37.63-27.65-9.16-6.33-18.64-12.87-27.29-19.39l-.43-.34c-5.89-4.87-12.23-9.74-18.93-14.9-14.01-10.77-28.5-21.92-39.47-33.63l-.37-.4-.34-.43c-9.97-12.76-14.35-25.48-18.58-37.78-1.5-4.37-2.92-8.5-4.59-12.65l-.18-.49c-9.77-27.68-14.94-57.75-16.18-94.3-27.1,25.46-52.3,43.34-79.09,56.15l-.47.21c-4.12,1.76-8.04,3.67-12.19,5.7-11.69,5.7-23.78,11.6-39.85,13.58l-.55.07-.55.02c-16.03.52-34.1-1.84-51.59-4.12-8.42-1.1-16.38-2.14-24.02-2.86l-.55-.06c-10.72-1.51-22.05-3.58-33-5.59-15.81-2.89-32.16-5.88-46.16-7.05h-.11c-24.02-2.23-45.21-.45-62.78,1.59-16.03,2.32-34.17,5.48-46.91,13.5l-45.49,28.64,28.64-45.49c8.04-12.77,11.19-30.89,13.5-46.91,2.05-17.57,3.83-38.75,1.6-62.78v-.11c-1.18-14-4.17-30.35-7.06-46.15-2-10.96-4.08-22.28-5.59-33.01l-.06-.55c-.72-7.61-1.76-15.53-2.85-23.92-2.29-17.53-4.65-35.65-4.13-51.69l.02-.55.07-.54c1.97-16.07,7.87-28.16,13.58-39.86,2.03-4.15,3.94-8.07,5.7-12.19l.22-.48c12.66-26.49,30.27-51.4,55.23-78.12-37.16-1.16-67.62-6.34-95.63-16.23l-.49-.18c-4.16-1.67-8.28-3.09-12.65-4.59-12.3-4.23-25.02-8.61-37.78-18.57l-.44-.34-.4-.38c-11.7-10.96-22.81-25.42-33.56-39.39-5.18-6.73-10.07-13.09-14.96-19l-.35-.44c-6.51-8.65-13.06-18.12-19.38-27.28-9.13-13.22-18.58-26.9-27.65-37.63l-.07-.08c-15.41-18.56-31.65-32.28-45.52-43.26-12.98-9.7-28.03-20.29-42.72-23.63l-52.42-11.92,52.42-11.92c14.71-3.34,29.76-13.94,42.73-23.63,13.87-10.97,30.1-24.69,45.51-43.25l.07-.08c9.07-10.73,18.51-24.4,27.65-37.62,6.33-9.16,12.87-18.64,19.39-27.29l.34-.43c4.87-5.89,9.74-12.23,14.9-18.93,10.77-14.01,21.92-28.5,33.63-39.47l.4-.37.43-.34c12.76-9.97,25.48-14.35,37.79-18.58,4.37-1.5,8.49-2.92,12.65-4.59l.49-.18c27.68-9.77,57.75-14.94,94.3-16.18-25.46-27.1-43.34-52.3-56.15-79.1l-.21-.47c-1.76-4.12-3.67-8.04-5.7-12.19-5.7-11.69-11.6-23.78-13.58-39.85l-.07-.55-.02-.55c-.52-16.02,1.84-34.1,4.12-51.59,1.1-8.42,2.14-16.38,2.86-24.02l.06-.55c1.51-10.72,3.58-22.05,5.59-33,2.89-15.81,5.88-32.16,7.05-46.16v-.11c2.23-24.02.45-45.21-1.59-62.78-2.32-16.03-5.48-34.17-13.5-46.91l-28.64-45.49,45.49,28.64c12.77,8.04,30.9,11.19,46.92,13.5,17.56,2.05,38.75,3.83,62.77,1.6h.11c14-1.18,30.34-4.17,46.15-7.06,10.96-2,22.29-4.08,33.01-5.59l.55-.06c7.61-.72,15.53-1.76,23.92-2.85,17.53-2.29,35.65-4.65,51.69-4.13l.55.02.54.07c16.07,1.97,28.16,7.87,39.85,13.58,4.15,2.03,8.07,3.94,12.2,5.7l.48.22c26.48,12.66,51.4,30.27,78.12,55.24,1.16-37.16,6.34-67.62,16.23-95.63l.18-.49c1.67-4.16,3.09-8.28,4.59-12.64,4.23-12.3,8.61-25.02,18.57-37.79l.34-.44.38-.4c10.96-11.7,25.42-22.81,39.39-33.56,6.73-5.18,13.09-10.07,19-14.96l.44-.35c8.65-6.51,18.12-13.06,27.28-19.38,13.22-9.13,26.9-18.58,37.63-27.65l.08-.07c18.56-15.41,32.28-31.65,43.26-45.51,9.7-12.98,20.29-28.04,23.63-42.73l11.92-52.42,11.91,52.42c3.34,14.71,13.93,29.76,23.63,42.72,10.98,13.87,24.7,30.11,43.26,45.52l.08.07c10.73,9.07,24.4,18.51,37.62,27.65,9.16,6.33,18.64,12.87,27.29,19.39l.43.34c5.89,4.87,12.23,9.74,18.93,14.9,14.01,10.78,28.5,21.92,39.47,33.63l.37.4.34.43c9.97,12.76,14.35,25.48,18.58,37.79,1.5,4.37,2.92,8.5,4.59,12.65l.18.49c9.77,27.68,14.94,57.75,16.18,94.3,27.1-25.46,52.3-43.34,79.09-56.15l.47-.21c4.12-1.76,8.04-3.67,12.19-5.7,11.69-5.7,23.78-11.6,39.85-13.58l.55-.07.55-.02c16.01-.52,34.1,1.84,51.59,4.12,8.42,1.1,16.38,2.14,24.02,2.86l.55.06c10.72,1.51,22.05,3.58,33,5.59,15.81,2.89,32.16,5.88,46.16,7.05h.11c24.02,2.23,45.21.45,62.78-1.59,16.03-2.32,34.17-5.48,46.91-13.5l45.49-28.64-28.64,45.49c-8.04,12.77-11.19,30.9-13.5,46.92-2.05,17.57-3.82,38.75-1.6,62.77v.11c1.18,14,4.17,30.35,7.06,46.16,2,10.95,4.08,22.28,5.59,33.01l.06.55c.72,7.61,1.76,15.53,2.85,23.92,2.29,17.53,4.65,35.65,4.13,51.69l-.02.55-.07.54c-1.97,16.07-7.87,28.16-13.58,39.86-2.03,4.15-3.94,8.07-5.7,12.19l-.22.48c-12.66,26.48-30.27,51.4-55.23,78.12,37.16,1.16,67.62,6.34,95.63,16.23l.49.18c4.16,1.67,8.28,3.09,12.65,4.59,12.3,4.23,25.02,8.61,37.78,18.57l.44.34.4.38c11.69,10.96,22.81,25.42,33.56,39.39,5.18,6.73,10.07,13.09,14.96,19l.35.44c6.51,8.65,13.06,18.12,19.39,27.29,9.13,13.22,18.58,26.9,27.65,37.63l.07.08c15.42,18.56,31.65,32.28,45.52,43.26,12.98,9.7,28.03,20.29,42.72,23.63l52.42,11.92-52.42,11.91c-14.71,3.34-29.76,13.93-42.72,23.63-13.87,10.97-30.1,24.69-45.52,43.26l-.07.08c-9.07,10.73-18.51,24.4-27.64,37.62-6.33,9.16-12.87,18.64-19.39,27.29l-.34.43c-4.87,5.89-9.74,12.22-14.9,18.93-10.77,14.01-21.92,28.5-33.63,39.47l-.4.37-.43.34c-12.76,9.97-25.48,14.35-37.79,18.58-4.37,1.5-8.5,2.92-12.65,4.59l-.49.18c-27.68,9.77-57.75,14.94-94.3,16.18,25.46,27.1,43.34,52.3,56.15,79.1l.21.47c1.76,4.12,3.67,8.04,5.69,12.19,5.7,11.69,11.6,23.78,13.58,39.85l.07.55.02.55c.52,16.02-1.84,34.1-4.12,51.58-1.1,8.42-2.14,16.38-2.86,24.02l-.07.55c-1.51,10.72-3.58,22.05-5.59,33-2.89,15.81-5.88,32.16-7.06,46.16v.11c-2.23,24.02-.46,45.2,1.59,62.77,2.32,16.03,5.47,34.17,13.5,46.92l28.64,45.49-45.49-28.64c-12.77-8.04-30.9-11.19-46.92-13.5-17.57-2.05-38.75-3.83-62.77-1.6h-.11c-14,1.18-30.34,4.17-46.15,7.06-10.96,2-22.28,4.08-33.01,5.59l-.55.06c-7.61.72-15.53,1.76-23.92,2.85-17.53,2.29-35.66,4.66-51.69,4.13l-.55-.02-.54-.07c-16.07-1.97-28.16-7.87-39.86-13.58-4.15-2.03-8.07-3.94-12.19-5.7l-.48-.22c-26.49-12.66-51.4-30.27-78.12-55.24-1.16,37.17-6.34,67.62-16.23,95.63l-.18.49c-1.67,4.16-3.09,8.28-4.59,12.64-4.23,12.3-8.61,25.02-18.57,37.79l-.34.44-.38.4c-10.96,11.7-25.42,22.81-39.39,33.56-6.73,5.18-13.09,10.07-19,14.96l-.44.35c-8.65,6.51-18.12,13.06-27.28,19.38-13.22,9.13-26.9,18.58-37.63,27.65l-.08.07c-18.56,15.42-32.28,31.65-43.26,45.52-9.7,12.98-20.29,28.03-23.63,42.72l-11.92,52.42Zm-63.14-159.42c20.33,16.89,35.1,34.37,46.86,49.24l.2.26c5.44,7.27,11.14,15.16,16.08,23.57,4.93-8.41,10.63-16.3,16.07-23.57l.2-.27c11.77-14.87,26.54-32.35,46.86-49.24,11.64-9.84,25.8-19.62,39.5-29.08,8.88-6.13,18.06-12.47,26.25-18.63,6.19-5.11,12.93-10.3,19.46-15.32,13.03-10.02,26.49-20.38,36.08-30.5,7.22-9.41,10.55-19.09,14.4-30.27,1.51-4.38,3.07-8.91,4.92-13.55,9.23-26.22,13.94-55.12,14.84-90.93l.02-.66.09-.65c2.1-15.65-2.54-25.86-15.44-33.63h-406.48c-12.83,7.75-17.46,17.98-15.45,33.69l.08.62.02.63c.9,35.8,5.62,64.7,14.84,90.94,1.86,4.64,3.42,9.18,4.92,13.56,3.85,11.18,7.18,20.86,14.4,30.26,9.59,10.13,23.09,20.52,36.15,30.56,6.5,5,13.23,10.17,19.39,15.26,8.2,6.16,17.38,12.5,26.26,18.64,13.69,9.46,27.85,19.24,39.48,29.07Zm-385.48-178.83c7.99.76,16.43,1.86,24.59,2.93,16.3,2.13,33.15,4.32,47.08,3.95,11.75-1.55,20.95-6.04,31.58-11.22,4.17-2.03,8.47-4.13,13.06-6.1,25.06-12.02,48.84-29.12,74.8-53.81l.48-.46.53-.4c12.55-9.58,16.49-20.08,12.86-34.7l-287.43-287.43c-14.55-3.59-25.06.37-34.75,12.9l-.38.5-.43.46c-24.68,25.95-41.78,49.72-53.81,74.79-1.97,4.6-4.07,8.91-6.11,13.08-5.19,10.63-9.68,19.83-11.22,31.58-.38,13.95,1.82,30.84,3.95,47.18,1.06,8.13,2.16,16.54,2.92,24.49,1.44,10.15,3.45,21.13,5.39,31.75,2.99,16.37,6.09,33.29,7.36,48.47,2.43,26.32.51,49.12-1.68,67.96l-.04.33c-1.29,8.99-2.84,18.6-5.3,28.04,9.43-2.46,19.04-4,28.03-5.3l.33-.04c18.85-2.2,41.66-4.11,67.98-1.68,15.17,1.27,32.09,4.37,48.45,7.36,10.62,1.94,21.59,3.95,31.74,5.39Zm824.63,4.63c13.94.38,30.84-1.82,47.18-3.95,8.13-1.06,16.54-2.16,24.49-2.92,10.16-1.44,21.14-3.45,31.76-5.39,16.37-3,33.3-6.09,48.47-7.36,26.32-2.43,49.12-.51,67.95,1.68l.33.04c8.99,1.29,18.6,2.84,28.03,5.3-2.46-9.43-4-19.04-5.3-28.03l-.04-.33c-2.2-18.85-4.11-41.66-1.68-67.99,1.27-15.17,4.37-32.09,7.36-48.45,1.94-10.61,3.95-21.59,5.39-31.74.76-7.99,1.86-16.43,2.93-24.6,2.13-16.3,4.32-33.14,3.95-47.07-1.55-11.75-6.04-20.95-11.22-31.58-2.03-4.16-4.13-8.47-6.1-13.06-12.02-25.06-29.12-48.84-53.81-74.8l-.45-.48-.4-.53c-9.58-12.55-20.08-16.49-34.7-12.86l-287.43,287.43c-3.59,14.55.37,25.06,12.9,34.74l.5.38.46.43c25.95,24.68,49.72,41.78,74.79,53.81,4.6,1.97,8.91,4.07,13.08,6.11,10.63,5.19,19.82,9.68,31.57,11.22Zm-905.25-416.46c2.64.5,5.32,1.16,8.06,1.98l2.94.89,296.32,296.32.89,2.93c.68,2.24,1.24,4.45,1.69,6.63,2.21-1.51,4.58-2.95,7.1-4.3l2.71-1.45h419.06l2.7,1.45c2.06,1.1,4.02,2.27,5.88,3.49.5-2.64,1.16-5.32,1.98-8.06l.89-2.94,296.32-296.32,2.93-.89c2.24-.68,4.45-1.24,6.63-1.69-1.51-2.21-2.95-4.58-4.3-7.1h.01c-.89-1.79-1.46-4.06-1.46-6.96v-414.81s1.45-2.7,1.45-2.7c1.1-2.06,2.27-4.02,3.49-5.88-2.64-.5-5.32-1.16-8.06-1.98l-2.94-.89-296.32-296.32-.89-2.93c-.68-2.24-1.24-4.45-1.69-6.63-2.21,1.51-4.58,2.95-7.1,4.3l-2.71,1.45h-419.06l-2.7-1.45c-2.06-1.1-4.02-2.27-5.88-3.49-.5,2.64-1.16,5.32-1.98,8.06l-.89,2.94-296.32,296.32-2.93.89c-2.24.68-4.45,1.24-6.63,1.69,1.51,2.22,2.95,4.58,4.3,7.1l1.45,2.71v419.06l-1.45,2.7c-1.1,2.06-2.27,4.02-3.49,5.88Zm-145.37-14.37c26.22,9.22,55.12,13.94,90.93,14.84l.66.02.65.09c15.64,2.09,25.86-2.54,33.63-15.44v-406.48c-7.75-12.83-17.98-17.46-33.69-15.45l-.62.08-.63.02c-35.8.9-64.7,5.62-90.94,14.84-4.64,1.86-9.18,3.42-13.56,4.92-11.18,3.85-20.86,7.18-30.26,14.4-10.13,9.59-20.52,23.09-30.56,36.15-5,6.5-10.17,13.23-15.26,19.39-6.16,8.2-12.5,17.38-18.64,26.26-9.45,13.69-19.23,27.84-29.06,39.47-16.89,20.33-34.37,35.11-49.25,46.88l-.26.2c-7.27,5.44-15.16,11.14-23.57,16.08,8.41,4.93,16.3,10.63,23.57,16.07l.27.2c14.87,11.77,32.35,26.54,49.24,46.86,9.84,11.64,19.62,25.8,29.08,39.49,6.13,8.88,12.47,18.06,18.63,26.25,5.11,6.19,10.3,12.94,15.32,19.46,10.02,13.03,20.38,26.49,30.5,36.08,9.41,7.22,19.09,10.55,30.27,14.4,4.38,1.51,8.92,3.07,13.56,4.93Zm1220.16-3.69c7.75,12.83,17.98,17.46,33.69,15.45l.62-.08.63-.02c35.8-.9,64.7-5.61,90.93-14.84,4.65-1.86,9.18-3.42,13.57-4.93,11.18-3.85,20.86-7.17,30.26-14.4,10.14-9.59,20.52-23.09,30.56-36.16,5-6.5,10.17-13.22,15.25-19.38,6.16-8.2,12.51-17.38,18.64-26.26,9.45-13.68,19.22-27.82,29.04-39.45,16.89-20.34,34.39-35.12,49.27-46.89l.26-.2c7.27-5.44,15.16-11.14,23.57-16.08-8.41-4.93-16.3-10.63-23.57-16.07l-.27-.2c-14.88-11.77-32.36-26.54-49.25-46.87-9.83-11.63-19.61-25.79-29.06-39.48-6.13-8.88-12.47-18.06-18.64-26.26-5.11-6.19-10.3-12.94-15.32-19.46-10.02-13.03-20.38-26.49-30.5-36.08-9.41-7.22-19.09-10.55-30.27-14.4-4.38-1.51-8.91-3.07-13.55-4.92-26.22-9.23-55.13-13.94-90.94-14.84l-.66-.02-.65-.09c-15.65-2.09-25.86,2.54-33.63,15.44,0,36.58,0,370.1,0,406.48ZM348.69,639.08c12.02,25.06,29.12,48.84,53.81,74.8l.46.48.4.53c9.58,12.55,20.08,16.49,34.7,12.86l287.43-287.43c3.59-14.55-.37-25.06-12.9-34.75l-.5-.38-.46-.43c-25.95-24.68-49.72-41.78-74.8-53.81-4.6-1.97-8.91-4.07-13.08-6.11-10.63-5.19-19.82-9.68-31.57-11.21-13.94-.38-30.84,1.82-47.18,3.95-8.13,1.06-16.54,2.16-24.49,2.92-10.16,1.44-21.14,3.45-31.76,5.39-16.36,2.99-33.27,6.09-48.44,7.36-26.33,2.44-49.14.52-67.98-1.68l-.33-.04c-8.99-1.29-18.6-2.84-28.04-5.3,2.46,9.43,4,19.04,5.3,28.03l.04.33c2.2,18.85,4.11,41.66,1.68,67.98-1.27,15.17-4.37,32.09-7.36,48.45-1.94,10.62-3.95,21.59-5.39,31.74-.76,7.99-1.86,16.43-2.93,24.59-2.13,16.3-4.32,33.14-3.95,47.08,1.55,11.75,6.04,20.96,11.22,31.59,2.03,4.17,4.13,8.47,6.1,13.06Zm1150.57,86.4c14.55,3.59,25.06-.37,34.74-12.9l.38-.5.43-.46c24.68-25.95,41.78-49.72,53.81-74.8,1.97-4.6,4.07-8.91,6.11-13.08,5.19-10.62,9.68-19.82,11.22-31.57.38-13.95-1.82-30.84-3.95-47.18-1.06-8.13-2.16-16.54-2.92-24.49-1.44-10.15-3.45-21.13-5.39-31.75-2.99-16.36-6.09-33.27-7.36-48.44-2.44-26.32-.52-49.14,1.68-67.99l.04-.33c1.3-8.99,2.84-18.6,5.3-28.04-9.43,2.46-19.04,4-28.03,5.3l-.33.04c-18.85,2.2-41.66,4.11-67.98,1.68-15.17-1.27-32.09-4.37-48.45-7.36-10.62-1.94-21.59-3.95-31.74-5.39-7.99-.76-16.43-1.86-24.59-2.93-16.3-2.13-33.14-4.33-47.08-3.95-11.75,1.55-20.95,6.04-31.58,11.22-4.17,2.03-8.47,4.13-13.07,6.1-25.06,12.02-48.84,29.12-74.8,53.81l-.48.46-.53.4c-12.55,9.58-16.49,20.08-12.86,34.7l287.43,287.43Zm-734.31-302.84h406.48c12.83-7.75,17.46-17.98,15.45-33.69l-.08-.62-.02-.63c-.9-35.8-5.61-64.7-14.84-90.93-1.86-4.65-3.42-9.18-4.93-13.57-3.85-11.18-7.18-20.86-14.4-30.26-9.59-10.13-23.09-20.52-36.16-30.56-6.5-5-13.22-10.17-19.39-15.25-8.2-6.16-17.38-12.51-26.26-18.64-13.69-9.46-27.85-19.23-39.48-29.07-20.33-16.89-35.1-34.37-46.86-49.24l-.2-.26c-5.44-7.27-11.14-15.16-16.08-23.57-4.93,8.41-10.63,16.3-16.07,23.57l-.21.27c-11.77,14.88-26.54,32.36-46.87,49.25-11.63,9.83-25.79,19.61-39.48,29.07-8.88,6.13-18.06,12.47-26.25,18.63-6.19,5.11-12.94,10.3-19.46,15.32-13.03,10.02-26.49,20.38-36.08,30.5-7.22,9.41-10.55,19.09-14.4,30.27-1.51,4.38-3.07,8.91-4.92,13.55-9.23,26.22-13.94,55.12-14.84,90.93l-.02.66-.09.65c-2.1,15.65,2.54,25.86,15.44,33.63Z"/>
      </g>
      <g>
        <circle class="cls-46" cx="969.79" cy="969.79" r="534.93"/>
        <path class="cls-1" d="m969.79,1521.01c-74.41,0-146.6-14.58-214.56-43.32-65.64-27.76-124.59-67.51-175.21-118.12-50.62-50.62-90.36-109.57-118.12-175.21-28.75-67.97-43.32-140.16-43.32-214.56s14.58-146.6,43.32-214.56c27.76-65.64,67.51-124.59,118.12-175.21,50.62-50.62,109.57-90.36,175.21-118.12,67.97-28.75,140.16-43.32,214.56-43.32s146.6,14.58,214.57,43.32c65.64,27.76,124.59,67.51,175.21,118.12,50.62,50.62,90.36,109.57,118.12,175.21,28.75,67.97,43.32,140.16,43.32,214.56s-14.58,146.6-43.32,214.56c-27.76,65.64-67.51,124.59-118.12,175.21-50.62,50.62-109.57,90.36-175.21,118.12-67.97,28.75-140.16,43.32-214.57,43.32Zm0-1069.86c-285.98,0-518.64,232.66-518.64,518.64s232.66,518.64,518.64,518.64,518.64-232.66,518.64-518.64-232.66-518.64-518.64-518.64Z"/>
      </g>
      <g class="cls-31">
        <path class="cls-43" d="m999.83,1235.14c-3.26,1.04-5.75,1.68-8.12,2.62-48.52,19.37-98.05,35.29-149.72,44-15.89,2.68-31.76,4.95-47.91,5.23-9.64.17-19.32,1.69-28.91,1.22-19.62-.96-38.95-3.76-57.41-11.29-32.52-13.26-51.74-37.32-58.61-71.37-3.51-17.4-2.66-34.94.16-52.42,2.69-16.64,8.55-32.2,15.58-47.39,2.57-5.56,5.55-10.89,11.69-16.06-.52,3.28-.54,5.14-1.13,6.79-3.03,8.56-6.33,17.02-9.31,25.6-4.82,13.86-8.61,27.86-8.8,42.78-.2,15.97,5.77,29.06,16.31,40.45,13.8,14.91,31.46,23.28,50.57,28.78,14.64,4.22,29.74,5.89,44.9,7.57,21.49,2.38,42.62.14,63.87-1.84,45.5-4.22,89.11-16.47,132.21-30.92,9.97-3.34,19.86-6.91,30.4-10.59.57-39.94,3.79-79.15,17.32-116.94-8.67-3.43-16.65-6.17-24.26-9.69-23.2-10.72-44.07-24.55-58.2-46.58-10.13-15.78-15.28-33.56-18.93-51.69-3.06-15.17-4.96-30.57-7.49-45.85-.4-2.45-1.41-4.79-2.62-8.75-2.2,7.77-3.78,13.96-5.7,20.04-5.8,18.3-16.88,33.3-29.75,47.17-21.04,22.68-44.38,42.64-70.76,58.84-21.01,12.9-42.51,24.91-66.75,30.82-14.5,3.54-28.97,6.67-44.19,4.06-16.91-2.9-26.99-13.32-33.09-28.27-6.12-15-6.95-30.72-4.73-46.65,1.41-10.12,2.19-20.4,4.5-30.32,5.4-23.25,14.33-45.18,26.99-65.51.27-.44.94-.63,2.99-1.92-3.92,10.56-7.68,19.66-10.69,29-4.93,15.31-10.14,30.6-13.7,46.25-1.68,7.4-2.54,15.29-1.35,23.42,3.04,20.66,14.9,30.31,36.95,31.16,18.97.73,37.23-3.81,54.93-10.26,33.21-12.1,61.86-31.74,88.92-54.06,17.51-14.44,32.51-31.15,46.89-48.62,7.74-9.41,10.3-19.65,8.7-31.06-4.3-30.78-10.33-61.28-21.42-90.38-9.91-25.99-21.38-51.38-31.89-77.15-1.6-3.92-2.85-8.55-2.4-12.64,1.26-11.6,3.42-23.12,5.38-34.64.27-1.56,1.49-2.95,2.87-5.56,3.32,4.05,6.26,7.18,8.7,10.67,14.54,20.8,25.24,43.55,33.96,67.31,11.14,30.35,18.08,61.75,24.21,93.39,6.9,35.59,13.75,71.19,21.34,106.64,2.75,12.87,8.34,24.95,14.67,36.61,6.95,12.8,18.18,21.26,29.35,29.82,15.83,12.14,34.16,18.94,53.4,25.27,30.98-47.66,73.38-81.79,125.68-107.07-3.48-1.05-4.96-1.58-6.48-1.92-.84-.19-1.75-.04-2.63-.06-45.14-.72-90.28-1.38-135.41-2.25-6.96-.13-13.9-1.26-22-2.04.31-3.14.1-6.01.93-8.54,3.81-11.68,7.91-23.26,12.15-35.61,8.85-3.01,17.64-6.13,26.52-8.99,22.3-7.18,44.64-14.2,66.93-21.39,3.33-1.07,6.61-2.47,9.67-4.16,4.26-2.35,7.54-5.91,8.32-10.81,1.01-6.34,1.85-12.78,1.92-19.18.21-19.94.38-39.9-.14-59.84-.34-13.13-1.95-26.23-2.89-39.35-.71-9.92-1.37-19.85-1.85-29.78-.76-15.5-1.55-31-1.96-46.5-.32-12.07-1.55-23.89-5.92-35.29-.89-2.32-1.3-5.4-.54-7.67,3.82-11.37,8.09-22.6,12.24-33.86.3-.81.9-1.51,1.88-3.1,1.75,2.32,3.26,3.62,3.89,5.26,10.72,27.89,21.32,55.82,31.98,83.74,1.92,5.03,2.53,10.12,1.51,15.94-8.48-2.29-11.51-11.04-19.19-14.7-2.84,5.78-1.21,11.56-1.03,17.15.15,4.66.9,9.3,1.18,13.97,1.17,19.56,2.3,39.13,3.34,58.7.22,4.09.13,8.22-.04,12.31-.44,10.53-.84,21.06-1.54,31.57-1.36,20.45-3.41,40.79-10.21,60.36-3.78,10.9-8.6,21.14-15.78,30.23-1.2,1.52-1.89,3.44-3.36,6.2,35.42.07,69.77,3.44,105.11,1.57,0-5.17.26-9.78-.05-14.36-.94-14-2.08-27.99-3.16-41.98-1.06-13.7-2.17-27.39-3.19-41.09-.69-9.34-1.39-18.67-1.87-28.02-.77-14.91-.64-29.91-2.22-44.72-1.95-18.31.17-36.95-4.74-54.98-.15-.56-.09-1.23-.35-1.72-6.37-11.77-2.23-22.66,2.67-33.54,2.72-6.05,5.17-12.22,7.91-18.73,6.44,7.22,32.15,72.17,37.5,94.21.78,3.19.62,6.61.96,10.7-9.56-2.29-12.77-10.83-20.9-15.46-.02,6.7-.38,12.37.02,17.98.8,11.07,2.21,22.1,3.03,33.17.89,11.96,1.25,23.96,2.1,35.93.87,12.24,2.18,24.45,3.08,36.7.86,11.67,1.36,23.37,2.15,35.05.7,10.47,1.57,20.93,2.42,32.03,2.45.35,4.67.99,6.88.94,15.8-.4,31.6-1.02,47.41-1.41,4.55-.11,9.47-1.41,13.91,3.41-.63,2.85-1.11,6.27-2.17,9.5-2.46,7.52-5.45,14.86-7.74,22.43-1.62,5.37-4.91,8.43-10.15,9.84-10.74,2.88-21.48,5.78-32.2,8.76-3.61,1-7.16,2.24-11.63,3.65,1.74,36.85,4.79,73.18,7.61,110.35,4.83.88,9.35,1.7,13.87,2.52,11.84,2.14,23.51,4.69,33.73,11.62,18.24,12.36,28.56,29.73,32.96,51.04,3.26,15.78,2.06,31.49-.45,47.16-6.08,38.05-24.45,69.65-50.62,97.45-14.98,15.9-31.35,29.83-49.94,41.2-22.24,13.6-45.95,23.15-72.08,26.15-27.92,3.2-55.49,2.78-82.43-6.53-32.66-11.28-54.28-33.69-66.35-65.66-2.98-7.9-5.18-16.1-8.17-25.53Zm157.27-21.36c-1.18-3.6-2.25-7.83-3.93-11.79-2.06-4.85-4.99-9.35-6.84-14.26-1.3-3.44-2.61-7.57-1.88-10.95,2.3-10.56,5.52-20.92,8.53-31.32.44-1.52,1.71-2.8,2.9-4.65,5.63,5.24,7.64,11.75,10.08,17.84,5.97,14.92,7.16,30.4,5.88,46.44-1.41,17.67-5.92,34.04-16.21,48.48-5.66,7.94-12.46,15.15-22.42,17.52-15.56,3.69-30.91,3.18-44.99-5.42-13.85-8.46-19.66-21.95-22-37.29-1-6.58-1.6-13.22-2.51-20.86-15.57,5.62-29.54,12.48-43.7,19.19.55,2.04.72,3.2,1.16,4.24,8.54,20.02,23.08,34.29,42.42,43.81,30.02,14.78,62.31,16.61,94.54,13.37,32.52-3.26,62.03-16.65,89.58-34.09,13.91-8.81,26.5-19.22,38.45-30.58,12.7-12.07,23.35-25.43,30.37-41.49,5.81-13.31,5.46-26.77-.63-39.9-11.5-24.83-32.16-37.09-58.2-41.64-1.51-.26-3.22.61-5.24,1.03,0,3.61.01,6.82,0,10.02-.09,16.39.56,32.74-1.47,49.14-2.43,19.57-6.47,38.66-13.3,57.12-1.97,5.33-5.03,10.26-7.58,15.38-.7-.18-1.41-.35-2.11-.53.33-6.55.61-13.1,1-19.65.81-13.43,1.91-26.84,2.4-40.28.2-5.5-1.07-11.04-1.35-16.58-.78-15.2-1.27-30.42-2.13-45.61-.24-4.3-1.38-8.55-2.16-13.12-5.55-.8-10.69-1.94-15.88-2.21-15.2-.77-30.42-1.3-45.64-1.7-26.94-.7-53.94,1.19-80.82-1.98-8.41-.99-16.85-1.8-25.24-2.93-8.9-1.21-17.76-2.71-27.13-4.16-14.68,34.37-22.96,69.08-19.44,106.68,2.65-.63,4.66-.86,6.47-1.58,7.08-2.8,14.12-5.7,21.14-8.66,11.34-4.78,22.6-9.74,34.01-14.35,2.74-1.11,5.7-3.36,9.32-.95,0,1.36.09,2.76-.01,4.14-.72,9.28-1.96,18.49-.91,27.89,1.85,16.6,13.79,28.65,30.56,29.68,6.43.39,12.96.57,19.34-.09,9.76-1.01,19.04-3.62,25.61-13.32Zm66.64-160.48c-2.22-33.49-4.44-66.82-6.73-101.34-6.07,1.67-11.11,2.87-16.04,4.43-29.98,9.48-58.56,22.27-85.5,38.39-21.62,12.93-42.14,27.52-59.39,46.17-1.42,1.54-2.49,3.41-4.58,6.33,58,6.15,114.62,5.27,172.24,6.03Z"/>
        <path class="cls-53" d="m777.97,1204.18c-13.1-8.94-25.35-17.29-38.34-26.16,6.02-11.79,10.66-23.68,18.06-35.11,13.85,5.61,24.41,15.43,37.21,23.92,4.56-8.75,9.04-17.35,13.9-26.66,14.9,6.58,27.3,15.41,38.44,25.43-.31,8.75-8.09,24.66-17.02,35.13-7.24-1.38-12.17-7.18-18.19-10.97-5.92-3.73-11.6-7.83-17.65-11.94-7.19,7.9-8.03,19.27-16.4,26.35Z"/>
        <path class="cls-33" d="m942.18,1339.24c-12.09-8.52-24-16.91-35.79-25.23.89-7.64,10.65-28.63,16.73-35.83,13.57,5.38,24.36,15.4,36.72,23.87,4.52-8.85,8.86-17.37,13.56-26.58,15.18,5.95,26.67,15.73,39.15,25.26-2.29,13.89-10.3,24.45-17.86,36.31-12.38-8.39-23.91-16.2-35.78-24.25-6.83,8.46-8.16,19.57-16.74,26.44Z"/>
        <path class="cls-14" d="m689.79,855.96c-8.4-.55-17.37,2.91-24.16-4.24-2.69-13.09,1.05-20.38,12.8-25.28,9.39.69,12.14,9.16,17.85,15.82,5.9-2.93,11.8-5.86,18.4-9.13.6,3.28,1.15,6.27,1.68,9.15,7.18,7.59,9.88,7.95,18.38,2.1,1.96-9.46-.82-18.77-3.56-27.97-1.83-6.16-1.9-11.85,1.61-18.21,8.97,15.07,6.64,33.24,15.39,47.13,8.53,3.44,15.55,3.16,21.77-4.38,0-7.96.36-16.43-.08-24.85-.75-14.31-1.98-28.6-3.03-42.9-.47-6.42-.85-12.84-1.54-19.24-.54-5.05-.28-9.76,3.68-14.75,4.67,8.76,7.55,17.41,10.23,26.86-1.9-.37-3.16-.61-4.86-.94,0,4.9-.23,9.75.04,14.57.85,14.89,2.18,29.77,2.75,44.67.31,8.23-1.48,16.32-4.97,23.88-3.09,6.68-7.34,12.37-15.49,12.49-8.45.12-13.37-4.99-16.2-12.5-.2-.53-.57-.99-1.14-1.97-3.84,6.68-5.34,15.74-15.96,14.66-8-.81-11.73-5.77-13.46-13.9-4.44,2.39-8.44,4.54-12.52,6.74-.38,1.22-.89,2.29-1.04,3.41-1.79,13.7-10.69,22.47-21.17,29.88-5.96,4.22-12.64,7.42-18.76,11.44-13.34,8.77-28.75,11.3-43.8,14.96-4.55,1.11-9.12,2.15-13.71,3.06-2.11.42-4.31.42-6.84-.78,6.91-3.03,13.88-5.91,20.7-9.12,17.76-8.35,35.66-16.42,53.06-25.46,7.69-4,14.41-9.94,21.36-15.27,2.8-2.15,5.1-5.02,2.59-9.94Zm-6.06-13c-7.28-6.07-7.6-6.11-12.87-1.75,3.65,3.48,7.38,4.81,12.87,1.75Z"/>
        <path class="cls-38" d="m868.83,566.04c3.75-6.19,7.49-12.36,11.09-18.31,9.17.94,14.84,5.69,18.61,12.08,5.34,9.05,10.46,18.38,14.27,28.14,4.02,10.3,6.41,21.23,10.06,33.79,1.03-4.34,1.77-7.14,2.36-9.97,3.55-16.9,6.83-33.86,10.69-50.68,2.71-11.79,9.64-19.65,19.2-23.3,9.55,2.74,12.16,5.53,15.66,16.73q-1.83,9.75-5.84,14c-5.87-1.21-7.74-10.26-16.84-7.73-2.06,5.07-5.1,10.77-6.69,16.84-3.42,13.01-6.02,26.24-9.08,39.35-1.99,8.54-4.02,17.09-6.41,25.52-1,3.51-2.47,7.16-6.98,9.34-.92-2.24-1.99-3.94-2.31-5.77-3.31-19.16-9.68-37.41-16.69-55.44-1.55-3.98-3.9-7.64-6-11.68-3.29,1.22-5.7,2.11-7.92,2.94-9.44-3.38-12.55-6.15-17.18-15.84Z"/>
        <path class="cls-54" d="m1347.67,837.24c3.2-5.34,6-10,9-15,14.72,11.26,23.4,25.15,27.98,41.7,5.58,20.18,5.36,40.58.79,60.82-4.64,20.53-9.92,40.92-15.32,61.26-1.39,5.24-.6,9.96,1.23,14.53,3.24,8.1,11.08,8.92,16.36,1.96,2.09-2.76,3.95-5.69,7.19-10.41-.2,3.87.11,5.78-.45,7.37-2.5,7.15-4.85,14.4-8.03,21.25-2.38,5.12-7.05,7.91-12.97,7.12-5.59-.75-8.49-4.51-10.06-9.74-3.47-11.52-3.19-23.16-.35-34.6,4.17-16.74,9.52-33.19,13.53-49.96,6.42-26.84,3.05-52.35-12.71-75.55-3.28-4.82-7.27-9.16-10.9-13.75-1.61-2.04-3.14-4.15-5.29-7.01Z"/>
        <path class="cls-40" d="m554.67,988.63c2.6-5.38,5.1-10.54,7.82-16.17,7.91,3.54,12.32,9.78,16.78,15.7,8.27,10.98,12.38,23.74,15.01,37.13,4.17,21.16-.36,41.31-6.47,61.33-3.25,10.64-7.07,21.13-9.77,31.91-1.39,5.55-1.56,11.63-1.03,17.36.7,7.6,4.49,10.06,13.63,9.72,3.42-4.38,7.29-9.35,11.95-15.32-1.23,9.99-3.58,18.33-7.49,26.21-.9,1.82-2,3.62-3.33,5.14-7.32,8.34-17.63,6.47-21.29-4.07-3.64-10.48-3.98-21.42-1.25-32.05,4.14-16.15,9.17-32.08,13.71-48.13,3.98-14.06,4.51-28.23.77-42.45-3.28-12.45-10.11-22.97-18.03-32.87-3.45-4.31-7.01-8.54-11.02-13.42Z"/>
        <path class="cls-23" d="m557.03,836.47c-2.07,6.07-4.38,12.07-6.13,18.22-1.18,4.18-2.23,8.59-2.2,12.89.13,16.66,11.52,27.45,28.16,26.69,5.21-.24,10.5-1.21,15.52-2.65,14.75-4.21,28.38-10.96,41.13-19.45,2.33-1.55,4.39-3.52,6.9-5.56-4.96-6.14-11.78-4.93-17.29-6.97-5.68-2.11-11.47-3.92-15.51-5.29-5.39-7.12-3.73-13.08-2.23-18.58,3.91-14.31,12.34-25.78,23.94-34.91,3.3-2.6,7.05-4.25,11.41-2.83,5.85,6,6.23,9.46,1.63,17.09-1.98-1.69-3.9-3.33-5.67-4.85-10.6,1.63-22.6,14.02-27.9,29.2,2.44,1.44,4.91,3.44,7.73,4.44,6.06,2.16,12.26,3.93,18.47,5.63,6.14,1.67,10.74,4.68,11.6,12.38-.71,7.96-5.46,14.32-11.98,19.79-13.26,11.14-28.62,18.28-45.05,23.01-6.06,1.74-12.72,2.08-19.08,1.95-13.05-.27-22.56-7.95-24.79-20.71-3.14-17.95,1.17-34.69,9.84-50.34.5.29.99.57,1.49.86Z"/>
        <path class="cls-19" d="m1077.68,766.85c-2.22,12.03-7.35,17.8-17.15,21.48-42.48,15.94-84.62,32.75-126.89,49.25-1.57.61-3.16,1.21-6.49,2.49,2.88-7.62,5.2-13.75,7.79-20.61,47.05-17.34,94.14-34.7,142.74-52.61Z"/>
        <path class="cls-58" d="m809.3,1109.94c-3.47,13.65-10.97,23.7-17.7,35.27-14.41-7.43-25.95-17.57-39.12-26.03,5.9-12.26,11-23.86,17.35-35.57,15.31,6.6,27.26,16.13,39.46,26.34Z"/>
        <path class="cls-59" d="m667.48,729.81c8.49-2.28,10.07-10.69,16.6-14.96-2.55,7.96-4.81,16.04-7.8,23.83-1.2,3.13-3.58,6.17-6.18,8.33-6.64,5.53-15.82,3.37-18.68-4.76-2-5.68-3.17-11.98-3.14-18,.09-18.97,4.53-37.11,12.56-54.32,2.4-5.15,5.07-10.17,8.92-14.69-3.2,11.79-6.27,23.61-9.65,35.35-2.47,8.58-3.12,17.28-2.53,26.09.5,7.49,2.4,9.89,9.9,13.13Z"/>
        <path class="cls-11" d="m1037.89,552.55c-2.42,8.93-4.85,17.86-7.26,26.79-2.67,9.89-5.46,19.74-5.02,30.17.23,5.47,1.65,10.35,5.96,14.85,11.79,3.69,13.27-8.25,19.19-13.46,1.53,13.06-7.57,30.41-18.26,34.78-10.83-2.01-14.65-6.51-15.54-18.69-.9-12.37-.04-24.71,3.72-36.49,3.73-11.67,8.63-22.97,13.14-34.39.59-1.49,1.87-2.71,2.83-4.06.41.17.82.34,1.24.51Z"/>
        <path class="cls-5" d="m875.88,1010.52c-1.61,6.8-3.2,13.61-4.82,20.41-2.17,9.11-4.82,18.13-6.37,27.34-.85,5.05-.1,10.42.37,15.61.54,5.99,3.99,9.55,10.2,10.39,7.17-2.09,8.94-9.59,14.81-15.25-1.5,12.02-3.96,22.33-10.99,30.68-6.4,7.6-16.98,5.88-20.65-3.36-2.11-5.31-3.31-11.37-3.28-17.07.12-17.76,4.01-34.88,11.27-51.1,2.71-6.06,6.36-11.7,9.58-17.54l-.11-.11Z"/>
        <path class="cls-26" d="m1319.46,940.24c-2.93,10.33-5.81,20.67-8.81,30.98-2.72,9.33-4.2,18.8-3.53,28.53.12,1.75.07,3.56.54,5.22,1.15,4.04,2.85,7.83,7.51,8.86,4.79,1.05,7.65-1.71,10.04-5.38,1.7-2.61,3.62-5.08,5.99-7.31-.33,10.53-3.2,20.24-9.39,28.54-5.42,7.25-16.27,6.03-20.47-2.06-1.57-3.02-2.56-6.61-2.79-10.02-.95-14.07-.34-28.05,4.03-41.62,4.02-12.5,8.24-24.92,16.9-35.74Z"/>
        <path class="cls-3" d="m904.46,1177.95c2.54-3.03,5.01-5.88,7.39-8.81,5.16-6.37,10.49-12.63,15.34-19.23,4.06-5.52,7.05-11.59,4.46-19.08-5.77-6.8-12.05-1.6-18.15-.19-.71-13.98,7.09-23.52,18.9-23.38,6.99.08,11.41,3.31,11.91,10.21.39,5.44.28,11.34-1.43,16.42-6.54,19.33-19.8,33.55-36.41,44.88-.24.16-.94-.36-2-.81Z"/>
        <path class="cls-6" d="m831.6,1379.2c7.41-9.12,14.23-17.09,20.55-25.45,2.96-3.92,5.4-8.39,7.19-12.96,1.08-2.75.45-6.17.6-9.57-2.78-1.46-5.03-2.65-7.39-3.89-4.3,1.54-8.33,2.99-13.09,4.7.71-7.3,2.53-13.49,7.16-18.66,4.29-4.8,9.78-6.17,15.94-5.26,4.06.6,6.89,2.76,8.35,6.79,2.43,6.68,1.98,13.31-.52,19.72-7.2,18.53-19.19,33.28-35.82,44.2-.39.26-1.03.15-2.97.37Z"/>
        <path class="cls-52" d="m1004.37,744.69c1.76-2.61,3.4-5.31,5.3-7.82,6.01-7.94,12.2-15.73,18.13-23.72,3.34-4.49,4.16-9.59,2.26-15.81-1.72-1.01-3.91-2.29-6.35-3.72-4.27,1.54-8.34,3.01-13.01,4.7.21-6.5,2.05-12.15,5.69-17.15,4.41-6.07,11.73-8.58,18.77-6.54,5.24,1.52,7.27,5.7,7.86,10.6.78,6.49.09,12.84-2.61,18.93-7.33,16.51-18.64,29.69-33.35,40.02-.67.47-1.66.47-2.5.7l-.19-.19Z"/>
        <path class="cls-13" d="m1279.16,781.77c4.99-6.44,9.98-12.87,14.97-19.31,5.9-7.61,12.43-14.87,14.23-24.62-3.63-10.16-5.42-10.63-19.87-5.41-.69-13.59,7.12-22.99,19.09-22.98,7.06,0,10.97,3.17,11.89,10.19.84,6.46.42,12.88-2.18,18.99-7.67,18.09-20.36,31.9-36.53,42.73-.44.29-1.13.21-1.71.3l.11.11Z"/>
        <path class="cls-30" d="m722.34,993.78c8.72-15.15,24.56-25.69,28.56-44.51-1.04-1.99-2.22-4.25-3.01-5.79-6.59-3.55-11.55.13-16.72,1.71-2.39-14.1,10.13-26.03,23.16-22.54,4.16,1.11,6.82,3.99,7.03,8.03.3,5.76.96,11.98-.77,17.27-6.58,20.18-20.76,34.44-38.25,45.82Z"/>
        <path class="cls-41" d="m764,599.92c2.5-6.41,4.15-11.33,6.35-16,.94-2,2.75-3.88,4.63-5.09,5.2-3.33,11.06-4.65,16.59-1.39,5.76,3.39,6.21,9.73,5.95,15.57-.38,8.64-3.58,16.62-8.29,23.76-7.8,11.81-17.71,21.72-29.02,30.23-.83.63-1.8,1.08-3.65.61,4.42-5.22,9.03-10.28,13.22-15.68,4.82-6.22,9.41-12.62,13.77-19.17,1.4-2.1,2.21-4.86,2.45-7.39.54-5.58-3.6-9.72-9.17-9.02-3.67.47-7.22,1.96-12.83,3.57Z"/>
        <path class="cls-51" d="m795.71,740.63c3.22,8.35,6.44,16.71,10.11,26.21-2.65-.87-4.1-1.34-6.13-2.01-.09,1.17-.29,2.18-.22,3.18,1.41,21.02,3.31,42.02,4.04,63.07.29,8.34-1.9,16.78-3.2,25.14-.28,1.82-1.6,3.48-3.33,7.07,0-7.41.24-12.67-.04-17.9-1.03-19.29-2.15-38.58-3.39-57.85-.77-11.97-2.09-23.91-2.6-35.88-.15-3.59,1.62-7.27,2.52-10.9.75-.04,1.5-.08,2.25-.11Z"/>
        <path class="cls-39" d="m1309.56,803.31c-5.35,9.4-12.98,17.06-15.88,28.08h10.94c4.64,5.66,5.1,9.64,1.52,15.25-2.97,4.65-6.94,7.93-13,7.12-6.08-.81-10.1-6.87-8.06-14.03,1.81-6.38,4.42-12.75,7.9-18.37,3.64-5.86,8.69-10.86,13.25-16.12.79-.92,2.2-1.3,3.33-1.93Z"/>
        <path class="cls-32" d="m945.41,742.17c2.71-3.26,5.57-6.69,9.68-11.61-3.07,11.21-3.5,21.58-13.95,26.27-6.83-.54-9.58-4.46-10.7-10.21-2.31-11.82-.04-23.25,3.45-34.39,2.3-7.35,4.37-15,10.82-20.71-1.02,3.85-2.06,7.69-3.06,11.54-1.77,6.78-3.96,13.48-5.12,20.36-.7,4.17-.19,8.68.49,12.92.55,3.43,3.15,5.49,8.4,5.83Z"/>
        <path class="cls-60" d="m1019.02,1398.99c4.48-5.34,9.09-10.58,13.4-16.05,2.32-2.95,4.52-6.13,6.08-9.52,2.33-5.05,1.6-6.35-4.41-10.76-2.67.81-5.61,1.71-9.87,3,1.59-4.43,2.38-8.12,4.17-11.24,2.97-5.17,9.55-7.27,14.43-5.25,4.27,1.77,6.27,6.51,5.04,12.69-3.39,17.06-13.96,28.88-28.83,37.13Z"/>
        <path class="cls-45" d="m597.74,776.73c3.26-2.66,5.45-4.45,8.27-6.75-.45,5.82-2.46,10.32-5.82,14.88h-6.92c-4.17-4.19-4.65-8.83-4-13.55,1.45-10.43,3.91-20.61,9.72-29.9-.41,2.18-.75,4.37-1.24,6.52-.52,2.27-1.38,4.49-1.74,6.78-.71,4.58-1.63,9.21-1.57,13.8.03,2.49,1.91,4.95,3.3,8.22Z"/>
        <path class="cls-10" d="m796.69,665.54c-.99,5.11-2.25,10.19-2.91,15.35-.71,5.54-2.6,11.48,3.59,16.87,2.38-2.07,4.64-4.04,7.55-6.56-1.27,6.91-1.58,13.5-9.36,16.22-5.57-1.29-7.48-5.72-7.33-10.46.35-11.04,1.96-21.91,8.58-31.31,0,0-.12-.1-.12-.1Z"/>
        <path class="cls-49" d="m1008.75,995.02c3.97-9.01,14.13-13.31,12.41-24.33-3.47-.2-6.2-.36-8.96-.52,2.91-10.41,4.7-11.61,13.42-9.11,4.41,11.48-.64,22.17-16.88,33.96Z"/>
        <path class="cls-50" d="m617.7,1105.64c4.65-8.33,13.52-12.95,11.2-23.49h-7.6c-.16-1.26-.62-2.43-.39-3.43,1.3-5.46,5.19-7.33,10.44-7.26,4.86,2.4,5.46,6.26,4.31,11.04-2.24,9.32-7.42,16.38-17.96,23.13Z"/>
        <path class="cls-28" d="m1333.43,912.66c3.56-7.67,13.88-11.84,11.99-23.05h-9.91c1.85-3.79,3.42-7.01,5.07-10.42h8.46c5.38,12.11-1.01,25.38-15.61,33.47Z"/>
        <path class="cls-18" d="m729.92,721.95c2.66-4.07,5.3-8.16,8-12.19,2.02-3.02,3.63-6.03.74-9.99h-8.07c3.16-10.56,5.27-11.98,13.63-9.51,4.45,10.77-1.79,24.43-14.42,31.57l.11.12Z"/>
        <path class="cls-47" d="m1359.82,1079.72c4,.96,6,3.77,5.48,7.65-.53,3.94-1.49,7.98-3.13,11.58-2.79,6.13-8.05,10.21-13.53,14.09,3.38-6.57,10.13-11.07,11.06-18.98-1.33-5.4-5.43-3.89-9.09-3.02.53-8.4.94-8.87,9.21-11.31Z"/>
        <path class="cls-37" d="m765.09,1343.25c3.59-5.56,7.19-11.13,10.38-16.07-1.46-6.98-6.34-4.56-10.07-4.55,2.87-11.03,5.84-12.68,14.33-8.52,2.85,11.53-3.32,23.71-14.7,29.07l.07.07Z"/>
        <path class="cls-16" d="m698.25,1160.22c1.71-2.63,3.42-5.26,5.12-7.9,2.48-3.84,4.94-7.68,6.91-10.73-2.02-5.95-6.48-3.8-9.42-4.85.55-8.64,2.42-10.12,11.62-9.47,3.73,3.03,3.67,7,2.46,11.15-2.74,9.42-8.7,16.39-16.79,21.69,0,0,.11.11.11.11Z"/>
        <path class="cls-12" d="m840.82,646.25c2.08-3.04,4.11-6.13,6.27-9.12,2.71-3.77,5.77-7.41,3.24-13.14h-8.05c1.82-9.76,3.28-11.01,12.15-10.36,3.47,2.93,3.99,6.5,2.71,10.89-2.74,9.36-8.22,16.49-16.43,21.61l.11.11Z"/>
        <path class="cls-25" d="m930.59,1399.59c2.16-3.08,4.29-6.17,6.47-9.23,2.36-3.31,5.19-6.47,2.86-11.79-2.48-.29-5.19-.61-7.9-.92,1.56-9.52,3.19-10.69,12.32-8.79,4.69,10.68-1.73,24.86-13.86,30.63,0,0,.1.1.1.1Z"/>
        <path class="cls-48" d="m718.32,762.6c9.95-1.86,3.24-9.47,5.99-13.74,4.33,3.27.89,10.92,8.76,12.92-1.22-5.1-2.21-9.26-3.59-15.05,7.12,8.33,7.34,13.54,1.61,20.22-1.84-.98-3.79-2.02-5.06-2.7-2.89,1.44-5.5,2.74-8.27,4.12-3.88-6.09-4.18-11.61-1.6-17.68.67,3.66,1.33,7.32,2.17,11.9Z"/>
        <path class="cls-22" d="m814.42,931.4c2.1-3.07,4.11-6.19,6.32-9.18,2.62-3.54,5.39-6.96,3.21-12.24-2.52-.29-4.96-.58-8.53-.99,1.57-3.24,2.87-5.93,4.19-8.65h8.87c3.97,7.88,1.22,14.4-2.95,20.11-3.03,4.14-7.43,7.27-11.22,10.85,0,0,.11.11.11.11Z"/>
        <path class="cls-8" d="m721.28,785.22c1.66-3.47,2.88-6.03,4.63-9.68,3.86,2.39,7.15,4.42,11.18,6.9-1.72,3.47-3.19,6.43-5,10.07-3.84-2.59-6.91-4.66-10.81-7.29Z"/>
        <path class="cls-29" d="m713.08,875.65c4.21,3.02,6.93,4.98,10.35,7.43-1.59,3.36-2.98,6.29-4.78,10.09-3.74-2.69-6.68-4.82-10.35-7.46,1.49-3.13,2.87-6.05,4.78-10.06Z"/>
        <path class="cls-42" d="m619.14,928.14c.53-1.16.75-2.71,1.65-3.41,3.38-2.65,22.17-8.21,28.57-8.18-9.9,6.28-19.8,8.56-28.75,12.92-.49-.44-.98-.89-1.47-1.33Z"/>
        <path class="cls-4" d="m709.73,789.07c-8.59,5.25-18.29,8.04-28.75,10.75.97-1.35,1.66-3.42,2.96-3.93,8.11-3.19,16.36-6.04,24.56-8.99.41.73.83,1.45,1.24,2.18Z"/>
        <path class="cls-55" d="m707.9,743.95c.79-1.6,1.06-3.39,1.98-3.84,8.26-4.02,16.91-6.94,27.15-9.92-4.33,5.34-17.3,11.14-29.14,13.76Z"/>
        <path class="cls-35" d="m796.81,665.65c.12-.79.24-1.57.06-.39.64-.98.23-.35-.18.28l.12.1Z"/>
        <path class="cls-57" d="m875.99,1010.63c.11-.21.21-.42.32-.63l-.43.52s.11.11.11.11Z"/>
        <path class="cls-56" d="m814.32,931.29c-.12.21-.25.42-.37.63.16-.17.32-.35.47-.52,0,0-.11-.11-.11-.11Z"/>
        <path class="cls-17" d="m1279.06,781.66c-.1.17-.19.35-.29.52.13-.14.26-.28.4-.42l-.11-.11Z"/>
        <path class="cls-24" d="m698.14,1160.11c-.12.18-.24.36-.36.54.16-.14.31-.28.47-.43l-.11-.11Z"/>
        <path class="cls-20" d="m1004.56,744.87c-.3.26-.59.52-1.78,1.56,1.06-1.17,1.33-1.46,1.59-1.75,0,0,.19.19.19.19Z"/>
        <path class="cls-2" d="m765.02,1343.18c-.59.57-1.18,1.15-1.77,1.72l.11.11c.58-.59,1.16-1.17,1.73-1.76l-.07-.07Z"/>
        <path class="cls-9" d="m763.25,1344.91c-.1.23-.2.46-.3.7.14-.2.28-.39.41-.59,0,0-.11-.11-.11-.11Z"/>
        <path class="cls-15" d="m729.8,721.83c-.22.25-.44.5-.4.45-.05.03.23-.15.51-.33l-.11-.12Z"/>
        <path class="cls-34" d="m840.71,646.14c-.13.24-.26.48-.39.72.17-.2.33-.41.5-.61l-.11-.11Z"/>
        <path class="cls-36" d="m930.49,1399.49c-.58.58-1.17,1.16-1.75,1.74,0,0,.11.11.11.11.58-.58,1.16-1.17,1.74-1.75,0,0-.1-.1-.1-.1Z"/>
        <path class="cls-7" d="m928.74,1401.23c-.1.19-.2.37-.3.56.14-.15.28-.3.42-.45,0,0-.11-.11-.11-.11Z"/>
      </g>
      <path class="cls-27" d="m1493.69,752.78v-306.89h-306.89l-217.01-217.01-217.01,217.01h-306.89v306.89l-217.01,217.01,217.01,217.01v306.89h306.89l217.01,217.01,217.01-217.01h306.89v-306.89l217.01-217.01-217.01-217.01Zm-523.9,751.93c-295.43,0-534.93-239.5-534.93-534.93s239.5-534.93,534.93-534.93,534.93,239.5,534.93,534.93-239.5,534.93-534.93,534.93Z"/>
    </g>
  </g>
</svg>